<?xml version="1.0" encoding="utf-8"?>
<!-- Generator: Adobe Illustrator 25.4.1, SVG Export Plug-In . SVG Version: 6.00 Build 0)  -->
<svg version="1.1" id="Layer_1" xmlns="http://www.w3.org/2000/svg" xmlns:xlink="http://www.w3.org/1999/xlink" x="0px" y="0px"
	 viewBox="0 0 53.27 52.94" style="enable-background:new 0 0 53.27 52.94;" xml:space="preserve">
<style type="text/css">
	.st0{fill:#FFFFFF;}
</style>
<g>
	<g>
		<path class="st0" d="M26.53,32.96c9.01,0,15.98-7.09,15.98-15.98S35.42,1,26.53,1S10.55,7.97,10.55,16.98S17.64,32.96,26.53,32.96
			z M26.53,7.37c5.41,0,9.61,4.21,9.61,9.61s-4.21,9.61-9.61,9.61s-9.61-4.21-9.61-9.61S21.12,7.37,26.53,7.37z"/>
	</g>
	<g>
		<path class="st0" d="M26.53,36.2c-9.25,0-17.9,3.84-24.63,10.57c-1.32,1.32-1.32,3.24,0,4.45s3.24,1.32,4.45,0
			c5.41-5.41,12.86-8.65,20.19-8.65s14.42,3.24,20.19,8.65c0.6,0.6,1.56,0.96,2.28,0.96c0.96,0,1.56-0.36,2.28-0.96
			c1.32-1.32,1.32-3.24,0-4.45C44.43,40.05,35.54,36.2,26.53,36.2z"/>
	</g>
</g>
</svg>
