<svg width="18" height="19" viewBox="0 0 18 19" fill="none" xmlns="http://www.w3.org/2000/svg">
<path d="M17.5889 16.0988L13.3807 11.8906C14.3376 10.4699 14.8098 8.69491 14.557 6.8035C14.126 3.58635 11.4893 0.968269 8.26895 0.560562C3.48102 -0.0452853 -0.54507 3.98081 0.0608129 8.76873C0.468625 11.9905 3.08706 14.6293 6.30456 15.0582C8.19597 15.3109 9.97136 14.839 11.3917 13.8819L15.5999 18.0901C16.149 18.6392 17.0395 18.6392 17.5887 18.0901C18.1373 17.5402 18.1373 16.6472 17.5889 16.0988ZM2.78106 7.81248C2.78106 5.33116 4.79974 3.31249 7.28106 3.31249C9.76239 3.31249 11.7811 5.33116 11.7811 7.81248C11.7811 10.2938 9.76239 12.3125 7.28106 12.3125C4.79974 12.3125 2.78106 10.2945 2.78106 7.81248Z" fill="#317ECE"/>
</svg>
