<?xml version="1.0" encoding="utf-8"?>
<!-- Generator: Adobe Illustrator 25.4.1, SVG Export Plug-In . SVG Version: 6.00 Build 0)  -->
<svg version="1.1" id="Layer_1" xmlns="http://www.w3.org/2000/svg" xmlns:xlink="http://www.w3.org/1999/xlink" x="0px" y="0px"
	 viewBox="0 0 1980 221.83" style="enable-background:new 0 0 1980 221.83;" xml:space="preserve">
<style type="text/css">
	.st0{clip-path:url(#SVGID_00000018950733865972491670000009712253997379966085_);}
	.st1{fill:#BAD655;}
	.st2{fill:#FFCA05;}
	.st3{fill:#FFDE4F;}
	.st4{fill:#D4DF5B;}
	.st5{clip-path:url(#SVGID_00000018950733865972491670000009712253997379966085_);fill:#EE3F65;}
	.st6{clip-path:url(#SVGID_00000018950733865972491670000009712253997379966085_);fill:#5DA8DC;}
	.st7{clip-path:url(#SVGID_00000018950733865972491670000009712253997379966085_);fill:#80B2DF;}
	.st8{clip-path:url(#SVGID_00000018950733865972491670000009712253997379966085_);fill:#07B6A1;}
	.st9{clip-path:url(#SVGID_00000018950733865972491670000009712253997379966085_);fill:#418ECD;}
	.st10{clip-path:url(#SVGID_00000018950733865972491670000009712253997379966085_);fill:#840050;}
</style>
<g>
	<defs>
		<rect id="SVGID_1_" width="1980" height="221.83"/>
	</defs>
	<clipPath id="SVGID_00000178177270307842512400000013609434685550753169_">
		<use xlink:href="#SVGID_1_"  style="overflow:visible;"/>
	</clipPath>
	<g style="clip-path:url(#SVGID_00000178177270307842512400000013609434685550753169_);">
		<g>
			<path class="st1" d="M1235.5,212.11l-1.04-12.26c-2.53-29.64-7.18-75.49-8.4-124.37c-0.31-12.21-0.41-24.6-0.2-36.99
				c0.31-18.55,1.3-37.09,3.24-54.86c-14.89-2.66-29.3-5.26-43.36-7.94c-70.11-13.44-140.03-22.58-209.53-25.26
				c-41.95-1.61-83.78-0.85-125.41,2.74c-6.93,0.58-13.85,1.25-20.79,2.02c-2.84,0.31-5.7,0.62-8.56,0.97
				c-0.94,0.12-1.89,0.23-2.83,0.35c-3.12,0.38-6.23,0.77-9.35,1.18c-3.42,0.44-6.85,0.92-10.27,1.41
				c-3.48,0.51-6.95,1.04-10.43,1.58c-6.9,1.07-13.79,2.25-20.67,3.5c-2.07,0.38-4.12,0.77-6.18,1.15c-2.04,0.39-4.08,0.79-6.11,1.2
				c-4.07,0.81-8.15,1.63-12.22,2.5c-2.04,0.44-4.08,0.89-6.11,1.33c-0.03,0.02-0.07,0.03-0.12,0.03
				c-3.42,0.77-6.85,1.54-10.29,2.35c-3.38,0.81-6.79,1.63-10.17,2.45c-0.03,0.02-0.07,0.03-0.1,0.03
				c-6.85,1.69-13.69,3.48-20.52,5.39c-1.71,0.48-3.42,0.95-5.13,1.43c-3.11,0.89-6.21,1.79-9.32,2.71
				c-0.44,0.13-0.89,0.26-1.35,0.39c-3.27,0.97-6.54,1.97-9.79,2.99c-3.4,1.07-6.79,2.15-10.17,3.25c-0.41,0.13-0.82,0.26-1.23,0.41
				c-0.02,0-0.03,0.02-0.03,0.02c-7.18,2.35-14.34,4.81-21.51,7.41c-3.04,1.08-6.06,2.2-9.1,3.34c-3.93,1.48-7.85,2.97-11.78,4.54
				c-4.12,1.61-8.27,3.27-12.39,4.96c-2.37,0.99-4.72,1.97-7.07,2.96c-0.05,0.02-0.08,0.03-0.13,0.05c-2.35,1-4.68,2-7.02,3.02
				c-4.31,1.86-8.59,3.78-12.85,5.72c-5.08,2.32-10.11,4.68-15.1,7.1c-2.3,1.12-4.58,2.23-6.88,3.37c-2.53,1.25-5.04,2.51-7.56,3.78
				c-2.02,1.05-4.04,2.09-6.06,3.14c-2.27,1.17-4.52,2.35-6.75,3.55s-4.47,2.4-6.7,3.61c-1.81,0.99-3.63,1.99-5.42,2.99
				c-4.95,2.74-9.86,5.54-14.74,8.4c-1.86,1.08-3.71,2.19-5.55,3.27c-7.57,4.52-15.05,9.15-22.43,13.92
				c-3.19,2.04-6.36,4.11-9.5,6.21c-1.61,1.07-3.2,2.14-4.8,3.2c-1.59,1.08-3.19,2.17-4.77,3.25c-6.34,4.34-12.6,8.77-18.78,13.31
				c-1.54,1.13-3.09,2.27-4.63,3.42c-3.07,2.28-6.13,4.58-9.17,6.92c-1.51,1.17-3.02,2.33-4.54,3.5
				c-5.03,3.91-10.01,7.89-14.94,11.91c-34.47,28.18-66.38,59.25-95.52,92.82c-57.56,66.3-104.27,142.38-138.55,225.44H369.2
				c0.25,2.05,0.48,4.06,0.71,6.05l13.7-6.05h381.7c65.02-45.02,141.02-74.88,222.17-83.62c85.99-9.25,174.36,3.81,258.62,7.87
				C1244.34,317.84,1239.97,264.58,1235.5,212.11z"/>
		</g>
		<path class="st2" d="M1980-542.24v275.93c-0.36-0.18-0.72-0.38-1.08-0.58c-2.97-1.63-5.93-3.3-8.97-4.75
			c-2.51-1.2-5.11-2.19-7.66-3.25c-2.73-1.13-5.42-2.33-8.18-3.32c-2.69-0.97-5.46-1.76-8.2-2.58c-2.66-0.82-5.32-1.66-8.02-2.35
			c-2.81-0.71-5.65-1.23-8.5-1.79c-2.68-0.53-5.34-1.07-8.02-1.46c-2.89-0.43-5.8-0.72-8.71-0.99c-2.66-0.26-5.32-0.49-8-0.62
			c-2.96-0.13-5.92-0.16-8.87-0.15c-2.65,0.02-5.31,0.07-7.97,0.21c-2.99,0.15-5.98,0.39-8.96,0.71c-2.65,0.26-5.27,0.61-7.9,1
			c-3.02,0.46-6.03,0.97-9.04,1.58c-2.6,0.53-5.16,1.17-7.74,1.81c-3.06,0.76-6.1,1.54-9.14,2.48c-2.48,0.76-4.96,1.64-7.44,2.51
			c-3.09,1.1-6.19,2.19-9.27,3.45c-2.33,0.97-4.65,2.09-6.98,3.14c-3.17,1.46-6.33,2.89-9.46,4.52c-2.1,1.1-4.16,2.37-6.24,3.55
			c-3.3,1.89-6.62,3.73-9.88,5.82c-1.56,1-3.09,2.17-4.63,3.22c-8.74,5.95-17.34,12.52-25.6,20.05c-1.13,1.04-2.15,2.1-3.25,3.12
			c-5.67,5.29-11.12,10.65-16.28,16.12c-1.38,1.46-2.76,2.91-4.11,4.37c-6.11,6.69-11.99,13.44-17.48,20.36l-0.07-0.07
			c-52.27,65.71-75.44,142.4-81.96,226.67c-8.1,76.77,1.48,166.68,5.54,214.43l1.05,12.26c4.27,50.2,8.45,101.09,10.3,152.11
			c0.39,10.61,0.43,21.16,0.15,31.66h-390.15c2.2-79.45-4.47-158.93-11.09-236.76l-1.04-12.26c-4.39-51.66-15.59-153.77-2.68-232.39
			l-1.64-0.28c4.19-52.25,7.07-101.88,13.9-150.78c17.98-128.46,60.81-240.23,134.54-327.74l-0.07-0.07
			c3.7-4.39,7.48-8.71,11.34-12.96c1.92-2.14,3.88-4.24,5.85-6.34c0.99-1.05,1.97-2.09,2.97-3.12c0.49-0.53,0.99-1.04,1.48-1.54
			c0.26-0.26,0.51-0.53,0.76-0.79c0.25-0.26,0.49-0.53,0.76-0.79h0.02c0.54-0.56,1.08-1.1,1.64-1.66c0.59-0.56,1.17-1.12,1.76-1.69
			H1980z"/>
		<path class="st2" d="M1980,43.18v403.76h-296.97c-0.95-62.39-6.18-124.57-11.4-185.69l-1.04-12.27
			c-2.86-33.8-8.61-89.19-8.66-145.47c120.54,19.01,227.48,0.07,304.99-51.12l-0.03-0.03C1971.34,49.39,1975.73,46.35,1980,43.18z"
			/>
		<path class="st3" d="M1269.27,446.94c2.2-79.45-4.47-158.93-11.09-236.76l-1.04-12.26c-4.39-51.66-15.59-153.77-2.68-232.39
			l-1.64-0.28c4.19-52.25,7.07-101.88,13.9-150.78c17.98-128.46,60.81-240.23,134.54-327.74l-0.07-0.07
			c3.7-4.39,7.48-8.71,11.34-12.96c1.92-2.14,3.88-4.24,5.85-6.34c0.99-1.05,1.97-2.09,2.97-3.12c0.49-0.53,0.99-1.04,1.48-1.54
			c0.26-0.26,0.51-0.53,0.76-0.79c0.26-0.26,0.53-0.53,0.77-0.79c0.54-0.56,1.08-1.1,1.64-1.66c0.59-0.56,1.17-1.12,1.76-1.69h21.95
			l37.22,989.18H1269.27z"/>
		<path class="st4" d="M1226.1,75.47l-0.03,0.02L693.92,310.11L383.61,446.94l-13.7,6.05c-0.23-1.99-0.46-3.99-0.71-6.05H174.98
			c34.24-83.03,80.93-159.07,138.44-225.37c29.12-33.59,61.03-64.67,95.48-92.89c4.93-4.03,9.91-8,14.94-11.91
			c1.51-1.17,3.02-2.33,4.54-3.5c3.04-2.33,6.1-4.63,9.17-6.92c1.54-1.15,3.09-2.28,4.63-3.42c6.18-4.54,12.44-8.97,18.78-13.31
			c1.58-1.08,3.17-2.17,4.77-3.25c1.59-1.07,3.19-2.14,4.8-3.2c3.14-2.09,6.31-4.17,9.5-6.21c7.38-4.77,14.85-9.4,22.43-13.92
			c1.84-1.08,3.7-2.19,5.55-3.27c4.88-2.86,9.79-5.65,14.74-8.4c1.79-1,3.61-2,5.42-2.99c2.23-1.22,4.47-2.42,6.7-3.61
			s4.49-2.38,6.75-3.55c2.02-1.05,4.04-2.09,6.06-3.14c2.51-1.27,5.03-2.53,7.56-3.78c2.3-1.13,4.58-2.25,6.88-3.37
			c5-2.42,10.02-4.78,15.1-7.1c4.26-1.94,8.54-3.86,12.85-5.72c2.33-1.02,4.67-2.02,7.02-3.02c0.05-0.02,0.08-0.03,0.13-0.05
			c2.35-0.99,4.7-1.97,7.07-2.96c4.12-1.69,8.27-3.35,12.39-4.96c3.93-1.56,7.85-3.06,11.78-4.54c3.04-1.13,6.06-2.25,9.1-3.34
			c7.16-2.6,14.33-5.06,21.51-7.41c0,0,0.02-0.02,0.03-0.02c0.41-0.15,0.82-0.28,1.23-0.41c3.38-1.1,6.77-2.19,10.17-3.25
			c3.25-1.02,6.52-2.02,9.79-2.99c0.46-0.13,0.9-0.26,1.35-0.39c3.11-0.92,6.21-1.82,9.32-2.71c1.71-0.48,3.42-0.95,5.13-1.43
			c6.84-1.89,13.67-3.68,20.52-5.39c0.03,0,0.07-0.02,0.1-0.03c3.38-0.82,6.79-1.64,10.17-2.45c3.43-0.81,6.87-1.58,10.29-2.35
			c0.05,0,0.08-0.02,0.12-0.03c2.04-0.44,4.07-0.89,6.11-1.33c4.08-0.87,8.15-1.69,12.22-2.5c2.04-0.41,4.08-0.81,6.11-1.2
			c2.05-0.38,4.11-0.77,6.18-1.15c6.88-1.25,13.77-2.42,20.67-3.5c3.48-0.54,6.95-1.07,10.43-1.58c3.42-0.49,6.85-0.97,10.27-1.41
			c3.12-0.41,6.23-0.81,9.35-1.18c0.94-0.12,1.89-0.23,2.83-0.35c2.86-0.35,5.72-0.66,8.56-0.97c6.93-0.76,13.85-1.43,20.79-2.02
			c41.6-3.55,83.39-4.29,125.34-2.66c64.63,2.48,129.61,10.57,194.78,22.48l54.95,65.5l0.08,0.1
			C1225.76,50.95,1225.79,63.28,1226.1,75.47z"/>
	</g>
	<path style="clip-path:url(#SVGID_00000178177270307842512400000013609434685550753169_);fill:#EE3F65;" d="M697.6,301.98
		l-3.68,8.13l-61.95,136.83H383.61l-13.7,6.05c-0.23-1.99-0.46-3.99-0.71-6.05c-2.19-18.45-5.16-39.37-9.25-61.96
		c-12.55-61.4-28.46-115.61-46.53-163.41c-0.02-0.03-0.02-0.05-0.03-0.07C267.49,100.18,207.53,20.06,152.67-32.17
		C120.61-65.1,84.18-94.09,44.5-119.98C29.71-129.64,14.87-138.7,0-147.18v-395.06h195.44c0.64,0.36,1.28,0.72,1.92,1.1
		c3.43,1.96,6.87,3.94,10.29,5.96c1.84,1.08,3.68,2.17,5.52,3.25c3.27,1.97,6.56,3.94,9.83,5.95c3.38,2.09,6.79,4.19,10.15,6.31
		c1.69,1.07,3.38,2.14,5.08,3.22c3.37,2.15,6.74,4.32,10.09,6.51c1.56,1.04,3.12,2.05,4.68,3.09c1.79,1.18,3.58,2.38,5.37,3.58
		c1.68,1.12,3.34,2.25,5.01,3.38c1.66,1.13,3.34,2.27,5,3.42c1.66,1.13,3.32,2.28,4.98,3.45c2.88,2,5.73,4.03,8.59,6.05
		c0.44,0.33,0.89,0.64,1.33,0.95c1.64,1.18,3.3,2.37,4.95,3.57c2.02,1.46,4.04,2.94,6.06,4.42c1.27,0.92,2.53,1.86,3.78,2.79
		c8.2,6.08,16.32,12.29,24.4,18.65c1.61,1.27,3.22,2.55,4.83,3.83c1.61,1.28,3.22,2.56,4.83,3.86c3.2,2.6,6.41,5.21,9.61,7.84
		c0.53,0.44,1.07,0.87,1.59,1.31c2.66,2.2,5.31,4.42,7.95,6.65c1.59,1.35,3.17,2.69,4.76,4.04c3.15,2.71,6.31,5.42,9.46,8.18
		c1.58,1.36,3.14,2.74,4.72,4.14c4.29,3.8,8.56,7.62,12.82,11.49c1.97,1.81,3.93,3.61,5.9,5.42c1.54,1.43,3.09,2.86,4.63,4.31
		c6.95,6.47,13.85,13.08,20.7,19.82c2.28,2.25,4.57,4.5,6.84,6.77c9.76,9.71,19.41,19.67,28.95,29.87
		c35.52,44.71,70.59,95.2,102.57,151.07l0.07-0.08c0,0,1.46,2.55,3.99,7.16c30.91,54.91,58.74,114.99,80.86,180.14
		c7.74,22.71,14.77,46.06,21,70C676.22,130.94,695.68,279.75,697.6,301.98z"/>
	<path style="clip-path:url(#SVGID_00000178177270307842512400000013609434685550753169_);fill:#5DA8DC;" d="M1076.04-204.82
		c-31.24,53.35-64.44,105.16-99.82,155.26c-0.02,0.03-0.05,0.05-0.07,0.08c-76.55,108.4-163.26,208.76-262.03,299.48l-9.84-65.64
		c-8.51-64.2-22.89-124.76-41.52-181.62c-1.18-3.66-2.4-7.3-3.65-10.93c-9.27-27.28-19.52-53.68-30.58-79.22
		c-1.38-3.22-2.78-6.41-4.21-9.6c-4.17-9.43-8.46-18.75-12.87-27.93c-0.07-0.12-0.11-0.25-0.18-0.36
		c-2.5-5.24-5.03-10.45-7.61-15.59c-1.99-4.01-3.99-8-6.03-11.96c56.82-84.03,111.88-165.5,168.03-248.54l226.11-8.58l24.19,58.89
		L1076.04-204.82z"/>
	<path style="clip-path:url(#SVGID_00000178177270307842512400000013609434685550753169_);fill:#80B2DF;" d="M1015.96-351.08
		L680.3-14.84L662.75,2.74l-0.03,0.03c-1.2-3.66-2.42-7.31-3.65-10.94c-9.28-27.28-19.52-53.68-30.55-79.23
		c-1.4-3.2-2.79-6.41-4.21-9.6c-4.19-9.43-8.48-18.75-12.87-27.93c-0.07-0.12-0.11-0.25-0.18-0.36c-2.5-5.24-5.03-10.43-7.61-15.59
		c-1.99-4.01-3.99-8-6.03-11.96c56.82-84.03,111.88-165.5,168.03-248.54l226.11-8.58L1015.96-351.08z"/>
	<path style="clip-path:url(#SVGID_00000178177270307842512400000013609434685550753169_);fill:#07B6A1;" d="M1980,43.18
		c-4.27,3.17-8.66,6.21-13.11,9.17l0.03,0.03c-77.51,51.18-184.44,70.13-304.99,51.12c0.05,56.28,5.8,111.67,8.66,145.47l1.04,12.27
		c5.23,61.13,10.45,123.3,11.4,185.69h-23.61c0.28-10.5,0.25-21.05-0.15-31.66c-1.86-51.02-6.03-101.91-10.3-152.11l-1.05-12.26
		c-4.06-47.75-13.64-137.66-5.54-214.43c6.52-84.28,29.69-160.96,81.96-226.67l0.07,0.07c5.49-6.92,11.37-13.67,17.48-20.36
		c1.35-1.46,2.73-2.91,4.11-4.37c5.16-5.47,10.61-10.83,16.28-16.12c1.1-1.02,2.12-2.09,3.25-3.12c8.27-7.53,16.86-14.1,25.6-20.05
		c1.54-1.05,3.07-2.22,4.63-3.22c3.25-2.09,6.57-3.93,9.88-5.82c2.09-1.18,4.14-2.45,6.24-3.55c3.14-1.63,6.29-3.06,9.46-4.52
		c2.33-1.05,4.65-2.17,6.98-3.14c3.07-1.27,6.18-2.35,9.27-3.45c2.48-0.87,4.96-1.76,7.44-2.51c3.04-0.94,6.08-1.73,9.14-2.48
		c2.58-0.64,5.14-1.28,7.74-1.81c3.01-0.61,6.01-1.12,9.04-1.58c2.63-0.39,5.26-0.74,7.9-1c2.97-0.31,5.96-0.56,8.96-0.71
		c2.66-0.15,5.32-0.2,7.97-0.21c2.96-0.02,5.92,0.02,8.87,0.15c2.68,0.13,5.34,0.36,8,0.62c2.91,0.26,5.82,0.56,8.71,0.99
		c2.68,0.39,5.34,0.94,8.02,1.46c2.84,0.56,5.69,1.08,8.5,1.79c2.69,0.69,5.36,1.53,8.02,2.35c2.74,0.82,5.5,1.61,8.2,2.58
		c2.76,0.99,5.46,2.19,8.18,3.32c2.55,1.07,5.14,2.05,7.66,3.25c3.04,1.45,6,3.12,8.97,4.75c0.36,0.2,0.72,0.39,1.08,0.58V43.18z"/>
	<path style="clip-path:url(#SVGID_00000178177270307842512400000013609434685550753169_);fill:#418ECD;" d="M1427.77-542.24
		c-0.59,0.58-1.17,1.13-1.76,1.69c-0.56,0.56-1.1,1.1-1.64,1.66h-0.02c-0.26,0.26-0.51,0.53-0.76,0.79
		c-0.25,0.26-0.49,0.53-0.76,0.79c-0.49,0.51-0.99,1.02-1.48,1.54c-1,1.04-1.99,2.07-2.97,3.12c-1.97,2.1-3.93,4.21-5.85,6.34
		c-3.86,4.26-7.64,8.58-11.34,12.96l0.07,0.07c-73.73,87.51-116.57,199.28-134.54,327.74c-6.84,48.9-9.71,98.52-13.9,150.78
		l1.64,0.28c-12.92,78.62-1.71,180.73,2.68,232.39l1.04,12.26c6.62,77.84,13.29,157.32,11.09,236.76H765.32
		c65.02-45.02,141.02-74.88,222.17-83.62c85.99-9.25,174.36,3.81,258.62,7.87c-1.76-53.35-6.13-106.61-10.6-159.07l-1.04-12.26
		c-2.53-29.64-7.18-75.49-8.4-124.37l0.03-0.02c-0.31-12.19-0.34-24.52-0.15-36.87l-0.08-0.1c0.31-18.55,1.3-37.09,3.24-54.86
		c-14.89-2.66-29.3-5.26-43.36-7.94c-70.11-13.44-140.03-22.58-209.53-25.26c35.38-50.1,68.59-101.91,99.82-155.26l-60.07-146.26
		l-24.19-58.89l-226.11,8.58c-56.15,83.05-111.21,164.51-168.03,248.54c2.04,3.96,4.04,7.95,6.03,11.96
		c2.58,5.16,5.11,10.35,7.61,15.59c0.07,0.12,0.12,0.25,0.18,0.36c4.39,9.19,8.68,18.5,12.87,27.93c1.41,3.19,2.81,6.39,4.21,9.6
		c11.03,25.55,21.26,51.96,30.55,79.23c-7.18,2.35-14.34,4.81-21.51,7.41c-22.12-65.15-49.95-125.22-80.86-180.14
		c-2.53-4.62-3.99-7.16-3.99-7.16l-0.07,0.08c-31.98-55.87-67.04-106.36-102.57-151.07c-9.55-10.2-19.19-20.16-28.95-29.87
		c-2.27-2.27-4.55-4.52-6.84-6.77c-6.85-6.74-13.75-13.34-20.7-19.82c-1.54-1.45-3.09-2.88-4.63-4.31c-1.97-1.81-3.93-3.61-5.9-5.42
		c-4.26-3.86-8.53-7.69-12.82-11.49c-1.58-1.4-3.14-2.78-4.72-4.14c-3.15-2.76-6.31-5.47-9.46-8.18c-1.59-1.35-3.17-2.69-4.76-4.04
		c-2.65-2.23-5.29-4.45-7.95-6.65c-0.53-0.44-1.07-0.87-1.59-1.31c-3.2-2.63-6.41-5.24-9.61-7.84c-1.61-1.3-3.22-2.58-4.83-3.86
		c-1.61-1.28-3.22-2.56-4.83-3.83c-8.08-6.36-16.2-12.57-24.4-18.65c-1.25-0.94-2.51-1.87-3.78-2.79c-2.02-1.48-4.04-2.96-6.06-4.42
		c-1.64-1.2-3.3-2.38-4.95-3.57c-0.44-0.31-0.89-0.62-1.33-0.95c-2.86-2.02-5.72-4.04-8.59-6.05c-1.66-1.17-3.32-2.32-4.98-3.45
		c-1.66-1.15-3.34-2.28-5-3.42c-1.68-1.13-3.34-2.27-5.01-3.38c-1.79-1.2-3.58-2.4-5.37-3.58c-1.56-1.04-3.12-2.05-4.68-3.09
		c-3.35-2.19-6.72-4.35-10.09-6.51c-1.69-1.08-3.38-2.15-5.08-3.22c-3.37-2.12-6.77-4.22-10.15-6.31c-3.27-2-6.56-3.98-9.83-5.95
		c-1.84-1.08-3.68-2.17-5.52-3.25c-3.42-2.02-6.85-4.01-10.29-5.96c-0.64-0.38-1.28-0.74-1.92-1.1H1427.77z"/>
	<path style="clip-path:url(#SVGID_00000178177270307842512400000013609434685550753169_);fill:#840050;" d="M313.38,221.5
		c-57.56,66.3-104.27,142.38-138.55,225.44H0v-594.11c14.87,8.48,29.71,17.53,44.5,27.19c39.68,25.9,76.11,54.88,108.17,87.81
		C207.53,20.06,267.49,100.18,313.38,221.5z"/>
</g>
</svg>
